<?xml version="1.0" encoding="UTF-8"?>
<svg width="338.67mm" height="234.65mm" version="1.1" viewBox="0 0 1200 831.4286" xmlns="http://www.w3.org/2000/svg">
 <defs>
  <filter id="a" color-interpolation-filters="sRGB">
   <feGaussianBlur result="blur" stdDeviation="6.1 6.1"/>
  </filter>
 </defs>
 <g transform="translate(214.29 77.638)">
  <rect x="-214.29" y="-77.638" width="1200" height="831.43" fill="#81d4fa" fill-rule="evenodd"/>
  <path d="m296.93 537.04 178.31 4.0315 14.66 139.54h-208.36z" fill="#f2f2f2"/>
  <path d="m296.93 537.04-4.6581 43.445h187.11l-4.141-39.413-178.31-4.0328z" fill="#ccc"/>
  <rect transform="scale(1,-1)" x="-17.547" y="-570.48" width="806.52" height="529.56" ry="36.722" fill="#fff" fill-rule="evenodd"/>
  <path d="m-17.665 29.735v466.9h806.76v-466.9zm19.017 24.129h765.23l-102.63 384.57-573.45-38.355z" fill="#333" fill-rule="evenodd"/>
  <rect x="-17.645" y="-4.4558" width="806.7" height="222.31" ry="41.745" fill="#333"/>
  <rect x="14.963" y="31.016" width="741.5" height="427.24" fill="#fff" fill-rule="evenodd"/>
  <rect x="221.41" y="659.47" width="328.61" height="21.14" ry="6.1107" fill="#fff"/>
  <circle cx="385.71" cy="534.5" r="20.732" fill="#333"/>
  <path d="m662.49 32.419c-175.88 2.0991-352.03 0.23708-528.01 0.94218-25.743 0.0719-60.717-6.22-74.115 21.723-12.127 24.392-2.0974 52.185-5.1373 78.162 0.71871 96.623-2.4574 193.58 1.8941 289.99 9.1974 27.479 43.654 31.19 69.403 27.698 185.69-0.66195 371.52 1.4103 557.13-1.0808 31.175-6.7688 36.492-41.162 32.365-66.359-1.149-107.45 2.5976-215.22-1.9781-322.46-6.4257-20.335-30.706-29.752-51.547-28.613z" fill="#fff"/>
  <rect transform="matrix(3.5391 0 0 2.9341 -515.05 -976.48)" x="179.72" y="350.65" width="149.6" height="122.14" ry="0" fill="#7e57c2" filter="url(#a)"/>
  <rect x="122.65" y="33.894" width="526.12" height="418.06" ry="0" fill="#fff"/>
  <g transform="matrix(3.5169 0 0 3.1741 425.07 -1091.2)">
   <rect transform="scale(-1,1)" x="-15.846" y="445.62" width="89.83" height="24.514" fill="#eceff1" fill-rule="evenodd"/>
   <rect x="-74.738" y="369.69" width="88.492" height="55.302" ry="1.3108" fill="#263238" fill-rule="evenodd"/>
   <ellipse cx="-30.492" cy="395.18" rx="12.017" ry="12.125" fill="#fff" fill-rule="evenodd"/>
   <ellipse cx="-30.492" cy="395.18" rx="10.442" ry="10.536" fill="#263238" fill-rule="evenodd"/>
   <rect x="-74.738" y="417.89" width="88.492" height="7.1059" ry="1.2061" fill="#455a64" fill-rule="evenodd"/>
   <rect x="-63.727" y="420.59" width="38.275" height="2.0082" ry="1.0041" fill="#263238" fill-rule="evenodd"/>
   <rect x="-63.727" y="420.59" width="24.343" height="2.0082" ry="1.0041" fill="#546e7a" fill-rule="evenodd"/>
   <rect x="4.5577" y="419.9" width=".99516" height="3.3621" ry=".21592" fill="#90a4ae" fill-rule="evenodd"/>
   <rect x="3.2044" y="420.57" width=".99516" height="2.6941" ry=".17302" fill="#90a4ae" fill-rule="evenodd"/>
   <rect x="1.7971" y="421.24" width=".99516" height="2.0261" ry=".13011" fill="#90a4ae" fill-rule="evenodd"/>
   <rect x=".47094" y="421.89" width=".99516" height="1.3777" ry=".10237" fill="#90a4ae" fill-rule="evenodd"/>
   <rect x="-.85524" y="422.42" width=".99516" height=".84721" ry=".12387" fill="#90a4ae" fill-rule="evenodd"/>
   <path d="m11.844 421.85v-0.52364l-0.49112-0.11274c-0.0297-0.10587-0.07087-0.20664-0.12319-0.30059l0.2682-0.42997-0.36702-0.37026-0.42607 0.27052c-0.09312-0.0529-0.19297-0.0945-0.29792-0.12434l-0.11173-0.49546h-0.51895l-0.11173 0.49546c-0.10494 0.0298-0.20479 0.0715-0.29797 0.12434l-0.42613-0.27052-0.36702 0.37026 0.2682 0.42997c-0.052116 0.0939-0.093666 0.19472-0.12325 0.30059l-0.49112 0.11274v0.52364l0.49112 0.11274c0.029705 0.10592 0.070876 0.20664 0.12325 0.30059l-0.2682 0.42996 0.36702 0.37032 0.42613-0.27058c0.093123 0.0528 0.19297 0.0945 0.29797 0.12434l0.11173 0.49547h0.51895l0.11173-0.49547c0.10488-0.0298 0.20479-0.0714 0.29792-0.12434l0.42607 0.27058 0.36702-0.37032-0.2682-0.42996c0.05212-0.094 0.0936-0.19467 0.12319-0.30059l0.49112-0.11274z" fill="#90a4ae"/>
   <ellipse cx="10.036" cy="421.59" rx=".90453" ry=".91265" fill="#455a64"/>
   <rect x="20.427" y="370.26" width="33.225" height="20.763" ry=".49213" fill="#ff7043" fill-rule="evenodd"/>
   <path d="m41.551 380.64a4.5117 4.5522 0 0 1 -4.5117 4.5522 4.5117 4.5522 0 0 1 -4.5117 -4.5522 4.5117 4.5522 0 0 1 4.5117 -4.5522 4.5117 4.5522 0 0 1 4.5117 4.5522z" fill="#fff" fill-rule="evenodd"/>
   <path d="m40.96 380.64a3.9205 3.9557 0 0 1 -3.9205 3.9557 3.9205 3.9557 0 0 1 -3.9205 -3.9557 3.9205 3.9557 0 0 1 3.9205 -3.9557 3.9205 3.9557 0 0 1 3.9205 3.9557z" fill="#ff7043" fill-rule="evenodd"/>
   <rect x="21.075" y="430.61" width="22.498" height="14.06" ry=".33325" fill="#29b6f6" fill-rule="evenodd"/>
   <path d="m35.38 437.64a3.0551 3.0826 0 0 1 -3.0551 3.0826 3.0551 3.0826 0 0 1 -3.0551 -3.0826 3.0551 3.0826 0 0 1 3.0551 -3.0826 3.0551 3.0826 0 0 1 3.0551 3.0826z" fill="#fff" fill-rule="evenodd"/>
   <path d="m34.979 437.64a2.6548 2.6787 0 0 1 -2.6549 2.6787 2.6548 2.6787 0 0 1 -2.6548 -2.6787 2.6548 2.6787 0 0 1 2.6548 -2.6786 2.6548 2.6787 0 0 1 2.6549 2.6786z" fill="#29b6f6" fill-rule="evenodd"/>
   <rect x="21.214" y="413.22" width="22.498" height="14.06" ry=".33325" fill="#ffb300" fill-rule="evenodd"/>
   <path d="m35.519 420.25a3.0551 3.0826 0 0 1 -3.0551 3.0826 3.0551 3.0826 0 0 1 -3.0552 -3.0826 3.0551 3.0826 0 0 1 3.0552 -3.0826 3.0551 3.0826 0 0 1 3.0551 3.0826z" fill="#fff" fill-rule="evenodd"/>
   <path d="m35.118 420.25a2.6548 2.6787 0 0 1 -2.6548 2.6787 2.6548 2.6787 0 0 1 -2.6549 -2.6787 2.6548 2.6787 0 0 1 2.6549 -2.6786 2.6548 2.6787 0 0 1 2.6548 2.6786z" fill="#ffb300" fill-rule="evenodd"/>
   <rect x="21.306" y="395.19" width="22.498" height="14.06" ry=".33325" fill="#1de9b6" fill-rule="evenodd"/>
   <path d="m35.611 402.22a3.0551 3.0826 0 0 1 -3.0551 3.0826 3.0551 3.0826 0 0 1 -3.0551 -3.0826 3.0551 3.0826 0 0 1 3.0551 -3.0826 3.0551 3.0826 0 0 1 3.0551 3.0826z" fill="#fff" fill-rule="evenodd"/>
   <path d="m35.21 402.22a2.6548 2.6787 0 0 1 -2.6548 2.6787 2.6548 2.6787 0 0 1 -2.6548 -2.6787 2.6548 2.6787 0 0 1 2.6548 -2.6786 2.6548 2.6787 0 0 1 2.6548 2.6786z" fill="#1de9b6" fill-rule="evenodd"/>
   <path transform="matrix(.81674 0 0 .82407 -13.697 65.041)" d="m-11.242 400.62-13.609 7.8569v-15.714z" fill="#fff" fill-rule="evenodd"/>
   <path transform="matrix(.81674 0 0 .82407 -13.697 65.041)" d="m66.039 383.04-5.3422 3.0843v-6.1686z" fill="#fff" fill-rule="evenodd"/>
   <path transform="matrix(.81674 0 0 .82407 -13.697 65.041)" d="m58.839 452.18-3.6175 2.0886v-4.1772z" fill="#fff" fill-rule="evenodd"/>
   <path transform="matrix(.81674 0 0 .82407 -13.697 65.041)" d="m58.87 431.09-3.6175 2.0886v-4.1772z" fill="#fff" fill-rule="evenodd"/>
   <path transform="matrix(.81674 0 0 .82407 -13.697 65.041)" d="m58.951 409.2-3.6175 2.0886v-4.1772z" fill="#fff" fill-rule="evenodd"/>
   <path transform="matrix(.81674 0 0 .82407 -13.697 65.041)" d="m-65.56 432.77-3.6175 2.0886v-4.1772z" fill="#263238" fill-rule="evenodd"/>
   <rect x="-69.421" y="448.18" width="49.511" height="2.7876" ry=".75368" fill="#90a4ae" fill-rule="evenodd"/>
   <rect x="-69.421" y="452.59" width="78.823" height="2.7876" ry=".75368" fill="#90a4ae" fill-rule="evenodd"/>
   <rect x="21.214" y="447.82" width="22.498" height="14.06" ry=".33325" fill="#ec407a" fill-rule="evenodd"/>
   <path d="m35.118 454.85a2.6548 2.6787 0 0 1 -2.6548 2.6787 2.6548 2.6787 0 0 1 -2.6549 -2.6787 2.6548 2.6787 0 0 1 2.6549 -2.6786 2.6548 2.6787 0 0 1 2.6548 2.6786z" fill="#ffb300" fill-rule="evenodd"/>
   <path transform="matrix(.81674 0 0 .82407 -13.697 99.639)" d="m58.87 431.09-3.6175 2.0886v-4.1772z" fill="#fff" fill-rule="evenodd"/>
   <rect x="21.214" y="464.99" width="22.498" height="14.06" ry=".33325" fill="#4caf50" fill-rule="evenodd"/>
   <path d="m35.118 472.02a2.6548 2.6787 0 0 1 -2.6548 2.6787 2.6548 2.6787 0 0 1 -2.6549 -2.6787 2.6548 2.6787 0 0 1 2.6549 -2.6786 2.6548 2.6787 0 0 1 2.6548 2.6786z" fill="#ffb300" fill-rule="evenodd"/>
   <path transform="matrix(.81674 0 0 .82407 -13.697 116.81)" d="m58.87 431.09-3.6175 2.0886v-4.1772z" fill="#fff" fill-rule="evenodd"/>
   <ellipse cx="32.609" cy="454.7" rx="2.8894" ry="2.9154" fill="#fff" fill-rule="evenodd"/>
   <ellipse cx="32.609" cy="454.7" rx="2.5108" ry="2.5333" fill="#ec407a" fill-rule="evenodd"/>
   <path transform="matrix(.19638 0 0 .19815 36.648 375.31)" d="m-11.242 400.62-13.609 7.8569v-15.714z" fill="#fff" fill-rule="evenodd"/>
   <ellipse cx="32.609" cy="472.11" rx="2.8894" ry="2.9154" fill="#fff" fill-rule="evenodd"/>
   <ellipse cx="32.609" cy="472.11" rx="2.5108" ry="2.5333" fill="#4caf50" fill-rule="evenodd"/>
   <path transform="matrix(.19638 0 0 .19815 36.648 392.72)" d="m-11.242 400.62-13.609 7.8569v-15.714z" fill="#fff" fill-rule="evenodd"/>
   <rect x="-69.421" y="457.13" width="78.823" height="2.7876" ry=".75368" fill="#90a4ae" fill-rule="evenodd"/>
   <rect x="-69.421" y="462.18" width="27.81" height="2.7876" ry=".75368" fill="#90a4ae" fill-rule="evenodd"/>
   <rect x="-70.711" y="429.35" width="10.354" height="10.354" ry=".75368" fill="#ec407a"/>
   <rect x="-56.316" y="431.37" width="34.85" height="3.0305" ry=".75368" fill="#ec407a"/>
   <rect x="-56.316" y="435.66" width="26.517" height=".75761" ry=".37881" fill="#ff7043"/>
  </g>
 </g>
</svg>
